<svg xmlns="http://www.w3.org/2000/svg" xmlns:xlink="http://www.w3.org/1999/xlink" preserveAspectRatio="xMidYMid" width="40" height="40" viewBox="0 0 40 40">
  <defs>
    <style>
      .cls-1 {
        fill: #fff;
        fill-rule: evenodd;
      }
    </style>
  </defs>
  <path d="M28.593,25.157 L26.778,25.157 L26.148,24.532 C28.377,21.932 29.731,18.562 29.731,14.870 C29.731,6.663 23.078,0.009 14.871,0.009 C6.664,0.009 0.011,6.663 0.011,14.870 C0.011,23.077 6.664,29.730 14.871,29.730 C18.562,29.730 21.932,28.376 24.530,26.148 L25.161,26.776 L25.161,28.587 L36.588,39.998 L39.997,36.589 L28.593,25.157 ZM14.871,25.157 C9.188,25.157 4.582,20.552 4.582,14.870 C4.582,9.188 9.188,4.582 14.871,4.582 C20.553,4.582 25.159,9.188 25.159,14.870 C25.159,20.552 20.553,25.157 14.871,25.157 Z" class="cls-1"/>
</svg>
